<svg width="34" height="31" viewBox="0 0 34 31" fill="none" xmlns="http://www.w3.org/2000/svg">
<path d="M13.9248 31H3.48119C2.52386 31 1.70404 30.6967 1.02173 30.0901C0.340576 29.4825 0 28.7525 0 27.9V6.2C0 5.3475 0.340576 4.61745 1.02173 4.00985C1.70404 3.40328 2.52386 3.1 3.48119 3.1H10.7482C11.0673 2.19583 11.691 1.45287 12.6193 0.8711C13.5476 0.290367 14.563 0 15.6654 0C16.8258 0 17.8631 0.290367 18.7775 0.8711C19.6908 1.45287 20.3069 2.19583 20.6261 3.1H27.8495C28.8069 3.1 29.6267 3.40328 30.309 4.00985C30.9901 4.61745 31.3307 5.3475 31.3307 6.2V13.95H27.8495V6.2H24.3683V7.75C24.3683 8.6025 24.0278 9.33203 23.3466 9.9386C22.6643 10.5462 21.8445 10.85 20.8871 10.85H10.4436C9.48624 10.85 8.667 10.5462 7.98585 9.9386C7.30354 9.33203 6.96238 8.6025 6.96238 7.75V6.2H3.48119V27.9H13.9248V31ZM21.7574 24.9937L30.3734 17.3212C30.6925 17.0371 31.0986 16.895 31.5918 16.895C32.085 16.895 32.4911 17.0371 32.8102 17.3212C33.1293 17.6054 33.2889 17.9671 33.2889 18.4062C33.2889 18.8454 33.1293 19.2071 32.8102 19.4912L22.9759 28.2487C22.6277 28.5588 22.2216 28.7137 21.7574 28.7137C21.2933 28.7137 20.8871 28.5588 20.539 28.2487L15.5783 23.8312C15.2592 23.5471 15.0997 23.1854 15.0997 22.7463C15.0997 22.3071 15.2592 21.9454 15.5783 21.6612C15.8974 21.3771 16.3036 21.235 16.7967 21.235C17.2899 21.235 17.6961 21.3771 18.0152 21.6612L21.7574 24.9937ZM15.6654 6.2C16.1585 6.2 16.5722 6.0512 16.9064 5.7536C17.2394 5.45703 17.406 5.08917 17.406 4.65C17.406 4.21083 17.2394 3.84245 16.9064 3.54485C16.5722 3.24828 16.1585 3.1 15.6654 3.1C15.1722 3.1 14.7591 3.24828 14.4261 3.54485C14.0919 3.84245 13.9248 4.21083 13.9248 4.65C13.9248 5.08917 14.0919 5.45703 14.4261 5.7536C14.7591 6.0512 15.1722 6.2 15.6654 6.2Z" fill="white"/>
</svg>
