<svg width="28" height="31" viewBox="0 0 28 31" fill="none" xmlns="http://www.w3.org/2000/svg">
<path d="M11.7124 31H2.9281C2.12288 31 1.43331 30.6967 0.859399 30.0901C0.286466 29.4825 0 28.7525 0 27.9V6.2C0 5.3475 0.286466 4.61745 0.859399 4.00985C1.43331 3.40328 2.12288 3.1 2.9281 3.1H9.04052C9.30893 2.19583 9.83355 1.45287 10.6144 0.8711C11.3952 0.290367 12.2492 0 13.1765 0C14.1525 0 15.0251 0.290367 15.7942 0.8711C16.5623 1.45287 17.0806 2.19583 17.349 3.1H23.4248C24.2301 3.1 24.9196 3.40328 25.4935 4.00985C26.0665 4.61745 26.3529 5.3475 26.3529 6.2V13.95H23.4248V6.2H20.4967V7.75C20.4967 8.6025 20.2103 9.33203 19.6373 9.9386C19.0634 10.5462 18.3739 10.85 17.5686 10.85H8.78431C7.97908 10.85 7.29 10.5462 6.71707 9.9386C6.14316 9.33203 5.85621 8.6025 5.85621 7.75V6.2H2.9281V27.9H11.7124V31ZM18.3007 24.9937L25.5477 17.3212C25.8161 17.0371 26.1577 16.895 26.5725 16.895C26.9874 16.895 27.329 17.0371 27.5974 17.3212C27.8658 17.6054 28 17.9671 28 18.4062C28 18.8454 27.8658 19.2071 27.5974 19.4912L19.3255 28.2487C19.0327 28.5588 18.6911 28.7137 18.3007 28.7137C17.9102 28.7137 17.5686 28.5588 17.2758 28.2487L13.1033 23.8312C12.8349 23.5471 12.7007 23.1854 12.7007 22.7463C12.7007 22.3071 12.8349 21.9454 13.1033 21.6612C13.3717 21.3771 13.7133 21.235 14.1281 21.235C14.5429 21.235 14.8845 21.3771 15.1529 21.6612L18.3007 24.9937ZM13.1765 6.2C13.5913 6.2 13.9392 6.0512 14.2203 5.7536C14.5005 5.45703 14.6405 5.08917 14.6405 4.65C14.6405 4.21083 14.5005 3.84245 14.2203 3.54485C13.9392 3.24828 13.5913 3.1 13.1765 3.1C12.7617 3.1 12.4142 3.24828 12.1341 3.54485C11.853 3.84245 11.7124 4.21083 11.7124 4.65C11.7124 5.08917 11.853 5.45703 12.1341 5.7536C12.4142 6.0512 12.7617 6.2 13.1765 6.2Z" fill="white"/>
</svg>
