<svg width="439" height="309" viewBox="0 0 439 309" fill="none" xmlns="http://www.w3.org/2000/svg">
<g filter="url(#filter0_d_162_104)">
<g filter="url(#filter1_d_162_104)">
<path d="M247.88 87.2663L253.97 100.556C259.697 96.52 265.241 92.7365 270.601 89.2056C270.601 89.0375 270.599 88.8699 270.598 88.7026C270.535 81.4761 269.835 74.9152 268.497 69.0199C268.133 69.3177 267.769 69.6166 267.405 69.9166C260.836 75.3343 254.328 81.1175 247.88 87.2663Z" fill="#FFC464"/>
<path d="M246.773 150.393L249.541 170.327L269.038 165.041L269.498 143.308L246.773 150.393Z" fill="#FFC464"/>
<path fill-rule="evenodd" clip-rule="evenodd" d="M269.038 165.041L341.441 145.409C357.681 140.979 370.414 135.626 379.641 129.35C388.499 123.444 394.773 116.614 398.464 108.862C402.154 101.11 404 92.8037 404 83.9439C404 68.8084 398.833 56.4416 388.499 46.8435C378.165 37.6145 364.693 33 348.085 33C330.369 33 313.207 38.1682 296.598 48.5047C287.111 54.6203 277.744 61.4587 268.497 69.0199C269.835 74.9152 270.535 81.4761 270.598 88.7026C270.599 88.8699 270.601 89.0375 270.601 89.2056C280.439 82.7248 289.659 77.0948 298.259 72.3155C311.546 65.3014 323.726 61.7944 334.798 61.7944C343.656 61.7944 351.222 64.0094 357.496 68.4393C363.771 73.2383 366.908 80.5 366.908 89.4813C366.908 96.1261 364.693 102.402 360.264 108.308C355.466 114.215 346.055 119.383 332.03 123.813L269.498 143.308L269.038 165.041Z" fill="white"/>
<path d="M258.953 47.951C250.833 37.9837 239.761 33 225.736 33C216.878 33 208.574 34.8458 200.823 38.5374C193.072 42.229 186.798 47.028 182 52.9346L194.733 70.6542C197.686 66.9626 201.192 64.1939 205.252 62.3482C209.312 60.5023 213.372 59.5795 217.431 59.5795C222.599 59.5795 226.658 61.7944 229.611 66.2243C232.194 70.6542 233.486 76.93 233.486 85.0514L232.379 201.336C232.01 222.379 237.177 238.991 247.88 251.173C258.214 263.724 274.454 270 296.598 270C308.409 270 320.035 268.154 331.476 264.463C342.918 261.14 353.436 256.157 363.032 249.512C372.629 243.236 380.563 235.668 386.838 226.808C393.112 217.949 397.172 208.166 399.017 197.46L362.479 193.584C361.003 205.766 357.127 215.734 350.853 223.486C344.209 231.238 336.459 236.96 327.601 240.652C318.743 244.343 310.439 246.189 302.688 246.189C295.307 246.189 289.033 244.343 283.865 240.652C278.698 237.329 274.823 231.977 272.239 224.593C269.287 217.58 267.995 208.35 268.364 196.907L269.038 165.041L249.541 170.327L246.773 150.393L269.498 143.308L270.579 92.25C270.598 91.2225 270.606 90.2077 270.601 89.2056C265.241 92.7365 259.697 96.52 253.97 100.556L247.88 87.2663C254.328 81.1175 260.836 75.3343 267.405 69.9166C267.769 69.6166 268.133 69.3177 268.497 69.0199C266.599 60.6576 263.417 53.6346 258.953 47.951Z" fill="#FFC464"/>
</g>
<g filter="url(#filter2_d_162_104)">
<path d="M50.5012 254.157C60.8353 263.386 74.3067 268 90.9152 268C108.631 268 125.793 262.832 142.402 252.495C151.889 246.38 161.256 239.541 170.503 231.98C169.134 225.948 168.433 219.22 168.399 211.794C158.561 218.275 149.341 223.905 140.741 228.685C127.454 235.699 115.274 239.206 104.202 239.206C95.3441 239.206 87.7782 236.991 81.5037 232.561C75.2293 227.762 72.0923 220.748 72.0923 211.519C72.0923 204.874 74.3067 198.598 78.7357 192.692C83.5335 186.785 92.945 181.617 106.97 177.187L169.502 157.692L169.962 135.959L97.5586 155.591C81.3191 160.021 68.5859 165.374 59.3591 171.65C50.5013 177.556 44.2268 184.386 40.5361 192.138C36.8455 199.89 35 208.196 35 217.056C35 232.192 40.1672 244.558 50.5012 254.157Z" fill="#F8F5F3"/>
<path d="M180.047 253.049C188.167 263.016 199.239 268 213.264 268C222.122 268 230.426 266.154 238.177 262.463C245.928 258.771 252.202 253.972 257 248.065L244.267 230.346C241.314 234.037 237.808 236.806 233.748 238.652C229.688 240.498 225.628 241.421 221.569 241.421C216.401 241.421 212.342 239.206 209.389 234.776C206.806 230.346 205.514 224.07 205.514 215.949L206.621 99.6636C206.99 78.6215 201.823 62.0094 191.12 49.8271C180.786 37.2758 164.546 31 142.402 31C130.591 31 118.965 32.8459 107.524 36.5374C96.0824 39.8598 85.5638 44.8435 75.9676 51.4883C66.3714 57.7642 58.4366 65.3318 52.1621 74.1916C45.8876 83.0514 41.8281 92.834 39.9825 103.54L76.5212 107.416C77.9974 95.2336 81.8727 85.2664 88.1471 77.514C94.7905 69.7617 102.541 64.0396 111.399 60.3481C120.257 56.6567 128.561 54.8108 136.312 54.8108C143.693 54.8108 149.967 56.6567 155.135 60.3481C160.302 63.6706 164.177 69.0232 166.761 76.4065C169.713 83.4204 171.005 92.6497 170.636 104.093L169.962 135.959L189.459 130.673L192.227 150.607L169.502 157.692L168.421 208.75C168.402 209.778 168.394 210.792 168.399 211.794C173.759 208.263 179.303 204.48 185.03 200.444L191.12 213.734C184.672 219.882 178.164 225.666 171.595 231.083C171.231 231.383 170.867 231.682 170.503 231.98C172.401 240.342 175.583 247.365 180.047 253.049Z" fill="#FFC464"/>
<path d="M192.227 150.607L189.459 130.673L169.962 135.959L169.502 157.692L192.227 150.607Z" fill="#FFC464"/>
<path d="M191.12 213.734L185.03 200.444C179.303 204.48 173.759 208.263 168.399 211.794C168.433 219.22 169.134 225.948 170.503 231.98C170.867 231.682 171.231 231.383 171.595 231.083C178.164 225.666 184.672 219.882 191.12 213.734Z" fill="#FFC464"/>
</g>
</g>
<defs>
<filter id="filter0_d_162_104" x="31" y="31" width="377" height="247" filterUnits="userSpaceOnUse" color-interpolation-filters="sRGB">
<feFlood flood-opacity="0" result="BackgroundImageFix"/>
<feColorMatrix in="SourceAlpha" type="matrix" values="0 0 0 0 0 0 0 0 0 0 0 0 0 0 0 0 0 0 127 0" result="hardAlpha"/>
<feOffset dy="4"/>
<feGaussianBlur stdDeviation="2"/>
<feComposite in2="hardAlpha" operator="out"/>
<feColorMatrix type="matrix" values="0 0 0 0 0 0 0 0 0 0 0 0 0 0 0 0 0 0 0.25 0"/>
<feBlend mode="normal" in2="BackgroundImageFix" result="effect1_dropShadow_162_104"/>
<feBlend mode="normal" in="SourceGraphic" in2="effect1_dropShadow_162_104" result="shape"/>
</filter>
<filter id="filter1_d_162_104" x="147.1" y="2.1" width="291.8" height="306.8" filterUnits="userSpaceOnUse" color-interpolation-filters="sRGB">
<feFlood flood-opacity="0" result="BackgroundImageFix"/>
<feColorMatrix in="SourceAlpha" type="matrix" values="0 0 0 0 0 0 0 0 0 0 0 0 0 0 0 0 0 0 127 0" result="hardAlpha"/>
<feOffset dy="4"/>
<feGaussianBlur stdDeviation="17.45"/>
<feComposite in2="hardAlpha" operator="out"/>
<feColorMatrix type="matrix" values="0 0 0 0 1 0 0 0 0 0.768627 0 0 0 0 0.392157 0 0 0 0.16 0"/>
<feBlend mode="normal" in2="BackgroundImageFix" result="effect1_dropShadow_162_104"/>
<feBlend mode="normal" in="SourceGraphic" in2="effect1_dropShadow_162_104" result="shape"/>
</filter>
<filter id="filter2_d_162_104" x="0.0999985" y="0.0999985" width="291.8" height="306.8" filterUnits="userSpaceOnUse" color-interpolation-filters="sRGB">
<feFlood flood-opacity="0" result="BackgroundImageFix"/>
<feColorMatrix in="SourceAlpha" type="matrix" values="0 0 0 0 0 0 0 0 0 0 0 0 0 0 0 0 0 0 127 0" result="hardAlpha"/>
<feOffset dy="4"/>
<feGaussianBlur stdDeviation="17.45"/>
<feComposite in2="hardAlpha" operator="out"/>
<feColorMatrix type="matrix" values="0 0 0 0 1 0 0 0 0 0.768627 0 0 0 0 0.392157 0 0 0 0.16 0"/>
<feBlend mode="normal" in2="BackgroundImageFix" result="effect1_dropShadow_162_104"/>
<feBlend mode="normal" in="SourceGraphic" in2="effect1_dropShadow_162_104" result="shape"/>
</filter>
</defs>
</svg>
