<svg width="62" height="63" viewBox="0 0 62 63" fill="none" xmlns="http://www.w3.org/2000/svg">
<path d="M18.6 50.4C15.19 50.4 12.431 53.235 12.431 56.7C12.431 60.165 15.19 63 18.6 63C22.01 63 24.8 60.165 24.8 56.7C24.8 53.235 22.01 50.4 18.6 50.4ZM0 0V6.3H6.2L17.36 30.2085L13.175 37.926C12.679 38.808 12.4 39.8475 12.4 40.95C12.4 44.415 15.19 47.25 18.6 47.25H55.8V40.95H19.902C19.468 40.95 19.127 40.6035 19.127 40.1625L19.22 39.7845L22.01 34.65H45.105C47.43 34.65 49.476 33.3585 50.53 31.4055L61.628 10.962C61.876 10.521 62 9.9855 62 9.45C62 7.7175 60.605 6.3 58.9 6.3H13.051L10.137 0H0ZM49.6 50.4C46.19 50.4 43.431 53.235 43.431 56.7C43.431 60.165 46.19 63 49.6 63C53.01 63 55.8 60.165 55.8 56.7C55.8 53.235 53.01 50.4 49.6 50.4Z" fill="white"/>
</svg>
