<svg width="439" height="476" viewBox="0 0 439 476" fill="none" xmlns="http://www.w3.org/2000/svg">
<g filter="url(#filter0_d_162_159)">
<g filter="url(#filter1_d_162_159)">
<path d="M247.88 87.2663L253.97 100.556C259.697 96.52 265.241 92.7365 270.601 89.2056C270.601 89.0375 270.599 88.8699 270.598 88.7026C270.535 81.4761 269.835 74.9152 268.497 69.0199C268.133 69.3177 267.769 69.6166 267.405 69.9166C260.836 75.3343 254.328 81.1175 247.88 87.2663Z" fill="#FFC464"/>
<path d="M246.773 150.393L249.541 170.327L269.038 165.041L269.498 143.308L246.773 150.393Z" fill="#FFC464"/>
<path fill-rule="evenodd" clip-rule="evenodd" d="M269.038 165.041L341.441 145.409C357.681 140.979 370.414 135.626 379.641 129.35C388.499 123.444 394.773 116.614 398.464 108.862C402.154 101.11 404 92.8037 404 83.9439C404 68.8084 398.833 56.4416 388.499 46.8435C378.165 37.6145 364.693 33 348.085 33C330.369 33 313.207 38.1682 296.598 48.5047C287.111 54.6203 277.744 61.4587 268.497 69.0199C269.835 74.9152 270.535 81.4761 270.598 88.7026C270.599 88.8699 270.601 89.0375 270.601 89.2056C280.439 82.7248 289.659 77.0948 298.259 72.3155C311.546 65.3014 323.726 61.7944 334.798 61.7944C343.656 61.7944 351.222 64.0094 357.496 68.4393C363.771 73.2383 366.908 80.5 366.908 89.4813C366.908 96.1261 364.693 102.402 360.264 108.308C355.466 114.215 346.055 119.383 332.03 123.813L269.498 143.308L269.038 165.041Z" fill="white"/>
<path d="M258.953 47.951C250.833 37.9837 239.761 33 225.736 33C216.878 33 208.574 34.8458 200.823 38.5374C193.072 42.229 186.798 47.028 182 52.9346L194.733 70.6542C197.686 66.9626 201.192 64.1939 205.252 62.3482C209.312 60.5023 213.372 59.5795 217.431 59.5795C222.599 59.5795 226.658 61.7944 229.611 66.2243C232.194 70.6542 233.486 76.93 233.486 85.0514L232.379 201.336C232.01 222.379 237.177 238.991 247.88 251.173C258.214 263.724 274.454 270 296.598 270C308.409 270 320.035 268.154 331.476 264.463C342.918 261.14 353.436 256.157 363.032 249.512C372.629 243.236 380.563 235.668 386.838 226.808C393.112 217.949 397.172 208.166 399.017 197.46L362.479 193.584C361.003 205.766 357.127 215.734 350.853 223.486C344.209 231.238 336.459 236.96 327.601 240.652C318.743 244.343 310.439 246.189 302.688 246.189C295.307 246.189 289.033 244.343 283.865 240.652C278.698 237.329 274.823 231.977 272.239 224.593C269.287 217.58 267.995 208.35 268.364 196.907L269.038 165.041L249.541 170.327L246.773 150.393L269.498 143.308L270.579 92.25C270.598 91.2225 270.606 90.2077 270.601 89.2056C265.241 92.7365 259.697 96.52 253.97 100.556L247.88 87.2663C254.328 81.1175 260.836 75.3343 267.405 69.9166C267.769 69.6166 268.133 69.3177 268.497 69.0199C266.599 60.6576 263.417 53.6346 258.953 47.951Z" fill="#FFC464"/>
</g>
<g filter="url(#filter2_d_162_159)">
<path d="M50.5012 254.157C60.8353 263.386 74.3067 268 90.9152 268C108.631 268 125.793 262.832 142.402 252.495C151.889 246.38 161.256 239.541 170.503 231.98C169.134 225.948 168.433 219.22 168.399 211.794C158.561 218.275 149.341 223.905 140.741 228.685C127.454 235.699 115.274 239.206 104.202 239.206C95.3441 239.206 87.7782 236.991 81.5037 232.561C75.2293 227.762 72.0923 220.748 72.0923 211.519C72.0923 204.874 74.3067 198.598 78.7357 192.692C83.5335 186.785 92.945 181.617 106.97 177.187L169.502 157.692L169.962 135.959L97.5586 155.591C81.3191 160.021 68.5859 165.374 59.3591 171.65C50.5013 177.556 44.2268 184.386 40.5361 192.138C36.8455 199.89 35 208.196 35 217.056C35 232.192 40.1672 244.558 50.5012 254.157Z" fill="#F8F5F3"/>
<path d="M180.047 253.049C188.167 263.016 199.239 268 213.264 268C222.122 268 230.426 266.154 238.177 262.463C245.928 258.771 252.202 253.972 257 248.065L244.267 230.346C241.314 234.037 237.808 236.806 233.748 238.652C229.688 240.498 225.628 241.421 221.569 241.421C216.401 241.421 212.342 239.206 209.389 234.776C206.806 230.346 205.514 224.07 205.514 215.949L206.621 99.6636C206.99 78.6215 201.823 62.0094 191.12 49.8271C180.786 37.2758 164.546 31 142.402 31C130.591 31 118.965 32.8459 107.524 36.5374C96.0824 39.8598 85.5638 44.8435 75.9676 51.4883C66.3714 57.7642 58.4366 65.3318 52.1621 74.1916C45.8876 83.0514 41.8281 92.834 39.9825 103.54L76.5212 107.416C77.9974 95.2336 81.8727 85.2664 88.1471 77.514C94.7905 69.7617 102.541 64.0396 111.399 60.3481C120.257 56.6567 128.561 54.8108 136.312 54.8108C143.693 54.8108 149.967 56.6567 155.135 60.3481C160.302 63.6706 164.177 69.0232 166.761 76.4065C169.713 83.4204 171.005 92.6497 170.636 104.093L169.962 135.959L189.459 130.673L192.227 150.607L169.502 157.692L168.421 208.75C168.402 209.778 168.394 210.792 168.399 211.794C173.759 208.263 179.303 204.48 185.03 200.444L191.12 213.734C184.672 219.882 178.164 225.666 171.595 231.083C171.231 231.383 170.867 231.682 170.503 231.98C172.401 240.342 175.583 247.365 180.047 253.049Z" fill="#FFC464"/>
<path d="M192.227 150.607L189.459 130.673L169.962 135.959L169.502 157.692L192.227 150.607Z" fill="#FFC464"/>
<path d="M191.12 213.734L185.03 200.444C179.303 204.48 173.759 208.263 168.399 211.794C168.433 219.22 169.134 225.948 170.503 231.98C170.867 231.682 171.231 231.383 171.595 231.083C178.164 225.666 184.672 219.882 191.12 213.734Z" fill="#FFC464"/>
</g>
</g>
<g filter="url(#filter3_d_162_159)">
<g filter="url(#filter4_d_162_159)">
<path d="M201.343 315.24L202.182 317.186C202.972 316.595 203.736 316.041 204.475 315.524C204.475 315.499 204.474 315.475 204.474 315.45C204.466 314.392 204.369 313.431 204.185 312.568C204.134 312.611 204.084 312.655 204.034 312.699C203.129 313.492 202.231 314.339 201.343 315.24Z" fill="white"/>
<path d="M201.19 324.484L201.572 327.404L204.259 326.629L204.323 323.447L201.19 324.484Z" fill="white"/>
<path fill-rule="evenodd" clip-rule="evenodd" d="M204.259 326.629L214.239 323.754C216.477 323.106 218.233 322.322 219.504 321.403C220.725 320.538 221.59 319.538 222.099 318.402C222.608 317.267 222.862 316.051 222.862 314.753C222.862 312.537 222.15 310.726 220.725 309.32C219.301 307.969 217.444 307.293 215.155 307.293C212.713 307.293 210.347 308.05 208.058 309.563C206.75 310.459 205.459 311.46 204.185 312.568C204.369 313.431 204.466 314.392 204.474 315.45C204.474 315.475 204.475 315.499 204.475 315.524C205.831 314.575 207.101 313.75 208.287 313.05C210.118 312.023 211.797 311.51 213.323 311.51C214.544 311.51 215.587 311.834 216.452 312.483C217.317 313.185 217.749 314.213 217.749 315.564C217.749 316.537 217.444 317.456 216.834 318.321C216.172 319.186 214.875 319.943 212.942 320.592L204.323 323.447L204.259 326.629Z" fill="white"/>
<path d="M202.869 309.482C201.75 308.023 200.224 307.293 198.29 307.293C197.07 307.293 195.925 307.563 194.857 308.104C193.788 308.644 192.923 309.347 192.262 310.212L194.017 312.807C194.424 312.266 194.907 311.861 195.467 311.591C196.027 311.32 196.586 311.185 197.146 311.185C197.858 311.185 198.418 311.51 198.825 312.158C199.181 312.807 199.359 313.726 199.359 314.915L199.206 331.945C199.155 335.026 199.867 337.459 201.343 339.243C202.767 341.081 205.006 342 208.058 342C209.686 342 211.288 341.73 212.865 341.189C214.442 340.703 215.892 339.973 217.215 339C218.538 338.081 219.631 336.972 220.496 335.675C221.361 334.377 221.921 332.945 222.175 331.377L217.139 330.809C216.935 332.593 216.401 334.053 215.536 335.188C214.621 336.324 213.552 337.162 212.331 337.702C211.11 338.243 209.966 338.513 208.897 338.513C207.88 338.513 207.015 338.243 206.303 337.702C205.591 337.216 205.057 336.432 204.7 335.35C204.293 334.323 204.115 332.972 204.166 331.296L204.259 326.629L201.572 327.404L201.19 324.484L204.323 323.447L204.471 315.97C204.474 315.819 204.475 315.671 204.475 315.524C203.736 316.041 202.972 316.595 202.182 317.186L201.343 315.24C202.231 314.339 203.129 313.492 204.034 312.699C204.084 312.655 204.134 312.611 204.185 312.568C203.923 311.343 203.484 310.315 202.869 309.482Z" fill="white"/>
</g>
<g filter="url(#filter5_d_162_159)">
<path d="M174.137 339.68C175.561 341.032 177.418 341.707 179.707 341.707C182.149 341.707 184.515 340.95 186.804 339.437C188.112 338.541 189.403 337.54 190.677 336.432C190.489 335.549 190.392 334.564 190.387 333.476C189.031 334.425 187.761 335.25 186.575 335.95C184.744 336.977 183.065 337.491 181.539 337.491C180.318 337.491 179.275 337.166 178.41 336.517C177.545 335.815 177.113 334.787 177.113 333.436C177.113 332.463 177.418 331.544 178.028 330.679C178.69 329.814 179.987 329.057 181.92 328.408L190.539 325.553L190.603 322.371L180.623 325.246C178.385 325.894 176.629 326.678 175.358 327.597C174.137 328.462 173.272 329.462 172.763 330.598C172.254 331.733 172 332.949 172 334.247C172 336.463 172.712 338.274 174.137 339.68Z" fill="#F8F5F3"/>
<path d="M191.993 339.518C193.112 340.977 194.638 341.707 196.571 341.707C197.792 341.707 198.937 341.437 200.005 340.896C201.074 340.356 201.939 339.653 202.6 338.788L200.845 336.193C200.438 336.734 199.954 337.139 199.395 337.409C198.835 337.68 198.276 337.815 197.716 337.815C197.004 337.815 196.444 337.491 196.037 336.842C195.681 336.193 195.503 335.274 195.503 334.085L195.656 317.055C195.707 313.974 194.994 311.541 193.519 309.757C192.095 307.919 189.856 307 186.804 307C185.176 307 183.574 307.27 181.996 307.811C180.419 308.298 178.97 309.027 177.647 310.001C176.324 310.92 175.23 312.028 174.366 313.325C173.501 314.623 172.941 316.055 172.687 317.623L177.723 318.191C177.927 316.407 178.461 314.947 179.326 313.812C180.241 312.677 181.31 311.839 182.531 311.298C183.752 310.757 184.896 310.487 185.965 310.487C186.982 310.487 187.847 310.757 188.559 311.298C189.271 311.785 189.805 312.568 190.162 313.65C190.569 314.677 190.747 316.028 190.696 317.704L190.603 322.371L193.29 321.597L193.672 324.516L190.539 325.553L190.39 333.031C190.388 333.181 190.387 333.33 190.387 333.476C191.126 332.959 191.89 332.405 192.68 331.814L193.519 333.76C192.63 334.661 191.733 335.508 190.828 336.301C190.778 336.345 190.728 336.389 190.677 336.432C190.939 337.657 191.378 338.685 191.993 339.518Z" fill="white"/>
<path d="M193.672 324.516L193.29 321.597L190.603 322.371L190.539 325.553L193.672 324.516Z" fill="white"/>
<path d="M193.519 333.76L192.68 331.814C191.89 332.405 191.126 332.959 190.387 333.476C190.392 334.564 190.489 335.549 190.677 336.432C190.728 336.389 190.778 336.345 190.828 336.301C191.733 335.508 192.63 334.661 193.519 333.76Z" fill="white"/>
</g>
</g>
<g filter="url(#filter6_d_162_159)">
<path d="M127.078 342C126.48 342 126.182 341.723 126.182 341.168C126.182 340.485 126.48 340.144 127.078 340.144C128.315 340.144 129.424 339.952 130.406 339.568C131.43 339.184 132.454 338.48 133.478 337.456C134.544 336.432 135.739 334.939 137.062 332.976C137.318 332.592 137.787 331.909 138.47 330.928C139.152 329.904 139.899 328.773 140.71 327.536C141.563 326.256 142.374 325.04 143.142 323.888C143.952 322.736 144.571 321.819 144.998 321.136C145.254 320.709 145.232 320.24 144.934 319.728C143.27 316.784 141.712 314.139 140.262 311.792C138.854 309.445 137.702 307.568 136.806 306.16C135.91 304.709 135.398 303.877 135.27 303.664C134.075 301.616 132.944 300.059 131.878 298.992C130.811 297.925 129.616 297.392 128.294 297.392C128.038 297.392 127.824 297.307 127.654 297.136C127.526 296.923 127.462 296.709 127.462 296.496C127.462 295.856 127.739 295.536 128.294 295.536C128.592 295.536 129.168 295.557 130.022 295.6C130.918 295.643 131.942 295.685 133.094 295.728C134.246 295.728 135.376 295.728 136.486 295.728C137.723 295.728 138.918 295.728 140.07 295.728C141.264 295.685 142.267 295.643 143.078 295.6C143.931 295.557 144.464 295.536 144.678 295.536C145.275 295.536 145.574 295.856 145.574 296.496C145.574 296.709 145.488 296.923 145.318 297.136C145.19 297.307 144.976 297.392 144.678 297.392C143.014 297.392 142.075 297.648 141.862 298.16C141.648 298.672 141.862 299.504 142.502 300.656C142.63 300.827 143.035 301.488 143.718 302.64C144.4 303.749 145.275 305.179 146.342 306.928C147.408 308.635 148.582 310.491 149.862 312.496C150.16 312.965 150.48 312.965 150.822 312.496C151.846 310.96 152.827 309.509 153.766 308.144C154.704 306.736 155.494 305.563 156.134 304.624C156.774 303.643 157.136 303.067 157.222 302.896C157.99 301.531 158.075 300.272 157.478 299.12C156.88 297.968 155.686 297.392 153.894 297.392C153.595 297.392 153.36 297.307 153.19 297.136C153.019 296.923 152.934 296.709 152.934 296.496C152.934 295.856 153.254 295.536 153.894 295.536C154.278 295.536 155.067 295.579 156.262 295.664C157.499 295.707 159.142 295.728 161.19 295.728C163.067 295.728 164.56 295.707 165.67 295.664C166.779 295.579 167.547 295.536 167.974 295.536C168.571 295.536 168.87 295.856 168.87 296.496C168.87 296.709 168.784 296.923 168.614 297.136C168.486 297.307 168.272 297.392 167.974 297.392C166.523 297.392 165.094 297.925 163.686 298.992C162.278 300.016 161.019 301.381 159.91 303.088C159.398 303.856 158.48 305.264 157.158 307.312C155.878 309.36 154.235 311.856 152.23 314.8C151.846 315.355 151.824 315.867 152.166 316.336C153.702 318.768 155.152 321.136 156.518 323.44C157.926 325.744 159.184 327.792 160.294 329.584C161.446 331.376 162.32 332.741 162.918 333.68C164.07 335.387 165.222 336.901 166.374 338.224C167.526 339.504 168.72 340.144 169.958 340.144C170.598 340.144 170.918 340.485 170.918 341.168C170.918 341.723 170.598 342 169.958 342C169.531 342 168.55 341.979 167.014 341.936C165.478 341.893 163.899 341.872 162.278 341.872C161.04 341.872 159.76 341.893 158.438 341.936C157.158 341.936 156.048 341.957 155.11 342C154.171 342 153.595 342 153.382 342C152.784 342 152.486 341.723 152.486 341.168C152.486 340.485 152.784 340.144 153.382 340.144C154.96 340.144 155.856 339.867 156.07 339.312C156.326 338.757 156.112 337.925 155.43 336.816C154.79 335.707 154.043 334.469 153.19 333.104C152.336 331.739 151.504 330.395 150.694 329.072C149.883 327.749 149.158 326.597 148.518 325.616C147.92 324.592 147.515 323.888 147.302 323.504C147.174 323.291 147.003 323.205 146.79 323.248C146.576 323.248 146.406 323.333 146.278 323.504C144.827 325.595 143.44 327.643 142.118 329.648C140.838 331.611 139.856 333.104 139.174 334.128C138.448 335.237 138.192 336.261 138.406 337.2C138.619 338.096 139.11 338.821 139.878 339.376C140.646 339.888 141.52 340.144 142.502 340.144C143.142 340.144 143.462 340.485 143.462 341.168C143.462 341.723 143.142 342 142.502 342C142.118 342 141.264 341.979 139.942 341.936C138.662 341.893 137.019 341.872 135.014 341.872C133.136 341.872 131.451 341.893 129.958 341.936C128.464 341.979 127.504 342 127.078 342ZM228.734 342C228.052 342 227.71 341.637 227.71 340.912C227.71 340.229 228.052 339.888 228.734 339.888C230.356 339.888 231.444 339.568 231.998 338.928C232.553 338.288 232.83 337.2 232.83 335.664V301.232C232.83 300.037 232.681 299.269 232.382 298.928C232.084 298.544 231.636 298.288 231.038 298.16C230.74 298.075 230.27 298.011 229.63 297.968C228.99 297.883 228.521 297.819 228.222 297.776C227.625 297.691 227.326 297.349 227.326 296.752C227.326 296.112 227.646 295.749 228.286 295.664C228.414 295.664 228.948 295.664 229.886 295.664C230.825 295.621 231.87 295.6 233.022 295.6C234.217 295.6 235.305 295.6 236.286 295.6C237.268 295.557 237.886 295.536 238.142 295.536C239.209 295.536 239.742 296.091 239.742 297.2V335.536C239.742 337.115 240.02 338.245 240.574 338.928C241.129 339.568 242.174 339.888 243.71 339.888C244.35 339.888 244.67 340.229 244.67 340.912C244.67 341.637 244.35 342 243.71 342C243.412 342 242.793 341.979 241.854 341.936C240.958 341.893 239.977 341.872 238.91 341.872C237.886 341.829 236.99 341.808 236.222 341.808C235.497 341.808 234.601 341.829 233.534 341.872C232.468 341.872 231.465 341.893 230.526 341.936C229.63 341.979 229.033 342 228.734 342ZM264.258 342.768C261.186 342.768 258.519 342.085 256.258 340.72C253.996 339.312 252.247 337.413 251.01 335.024C249.772 332.635 249.154 329.904 249.154 326.832C249.154 323.76 249.772 321.029 251.01 318.64C252.247 316.251 253.996 314.373 256.258 313.008C258.519 311.643 261.186 310.96 264.258 310.96C267.33 310.96 269.975 311.643 272.194 313.008C274.455 314.373 276.204 316.251 277.442 318.64C278.679 321.029 279.298 323.76 279.298 326.832C279.298 329.904 278.679 332.635 277.442 335.024C276.204 337.413 274.455 339.312 272.194 340.72C269.975 342.085 267.33 342.768 264.258 342.768ZM264.258 340.592C266.903 340.592 268.802 339.333 269.954 336.816C271.148 334.256 271.746 330.928 271.746 326.832C271.746 322.779 271.148 319.493 269.954 316.976C268.802 314.416 266.903 313.136 264.258 313.136C261.612 313.136 259.692 314.416 258.498 316.976C257.303 319.493 256.706 322.779 256.706 326.832C256.706 330.928 257.303 334.256 258.498 336.816C259.692 339.333 261.612 340.592 264.258 340.592ZM284.483 342C283.843 342 283.523 341.637 283.523 340.912C283.523 340.229 283.843 339.888 284.483 339.888C286.232 339.888 287.533 339.568 288.387 338.928C289.24 338.288 289.667 337.2 289.667 335.664V317.36C289.667 316.421 289.56 315.717 289.347 315.248C289.176 314.779 288.792 314.501 288.195 314.416C287.981 314.373 287.576 314.331 286.979 314.288C286.381 314.203 285.784 314.139 285.187 314.096C284.632 314.053 284.248 314.011 284.035 313.968C283.437 313.84 283.139 313.499 283.139 312.944C283.139 312.219 283.459 311.856 284.099 311.856C284.227 311.856 284.781 311.856 285.763 311.856C286.787 311.813 287.917 311.792 289.155 311.792C290.435 311.792 291.587 311.792 292.611 311.792C293.677 311.749 294.339 311.728 294.595 311.728C295.661 311.728 296.195 312.283 296.195 313.392V316.976C296.195 317.147 296.259 317.253 296.387 317.296C296.515 317.339 296.643 317.275 296.771 317.104C297.411 316.123 298.2 315.163 299.139 314.224C300.077 313.285 301.144 312.517 302.339 311.92C303.576 311.28 304.899 310.96 306.307 310.96C308.781 310.96 310.616 311.472 311.811 312.496C313.005 313.52 313.603 314.843 313.603 316.464C313.603 317.403 313.24 318.363 312.515 319.344C311.832 320.283 310.787 320.752 309.379 320.752C307.8 320.752 306.712 320.347 306.115 319.536C305.56 318.683 305.283 317.851 305.283 317.04C305.283 316.187 305.155 315.589 304.899 315.248C304.643 314.864 304.195 314.672 303.555 314.672C302.445 314.672 301.336 315.205 300.227 316.272C299.16 317.339 298.264 318.725 297.539 320.432C296.856 322.096 296.515 323.909 296.515 325.872V335.536C296.515 337.157 297.005 338.288 297.987 338.928C299.011 339.568 300.291 339.888 301.827 339.888C302.509 339.888 302.851 340.229 302.851 340.912C302.851 341.637 302.509 342 301.827 342C301.4 342 300.397 341.979 298.819 341.936C297.283 341.851 295.363 341.808 293.059 341.808C291.096 341.808 289.283 341.851 287.619 341.936C285.997 341.979 284.952 342 284.483 342Z" fill="white"/>
</g>
<defs>
<filter id="filter0_d_162_159" x="31" y="31" width="377" height="247" filterUnits="userSpaceOnUse" color-interpolation-filters="sRGB">
<feFlood flood-opacity="0" result="BackgroundImageFix"/>
<feColorMatrix in="SourceAlpha" type="matrix" values="0 0 0 0 0 0 0 0 0 0 0 0 0 0 0 0 0 0 127 0" result="hardAlpha"/>
<feOffset dy="4"/>
<feGaussianBlur stdDeviation="2"/>
<feComposite in2="hardAlpha" operator="out"/>
<feColorMatrix type="matrix" values="0 0 0 0 0 0 0 0 0 0 0 0 0 0 0 0 0 0 0.25 0"/>
<feBlend mode="normal" in2="BackgroundImageFix" result="effect1_dropShadow_162_159"/>
<feBlend mode="normal" in="SourceGraphic" in2="effect1_dropShadow_162_159" result="shape"/>
</filter>
<filter id="filter1_d_162_159" x="147.1" y="2.1" width="291.8" height="306.8" filterUnits="userSpaceOnUse" color-interpolation-filters="sRGB">
<feFlood flood-opacity="0" result="BackgroundImageFix"/>
<feColorMatrix in="SourceAlpha" type="matrix" values="0 0 0 0 0 0 0 0 0 0 0 0 0 0 0 0 0 0 127 0" result="hardAlpha"/>
<feOffset dy="4"/>
<feGaussianBlur stdDeviation="17.45"/>
<feComposite in2="hardAlpha" operator="out"/>
<feColorMatrix type="matrix" values="0 0 0 0 1 0 0 0 0 0.768627 0 0 0 0 0.392157 0 0 0 0.16 0"/>
<feBlend mode="normal" in2="BackgroundImageFix" result="effect1_dropShadow_162_159"/>
<feBlend mode="normal" in="SourceGraphic" in2="effect1_dropShadow_162_159" result="shape"/>
</filter>
<filter id="filter2_d_162_159" x="0.0999985" y="0.0999985" width="291.8" height="306.8" filterUnits="userSpaceOnUse" color-interpolation-filters="sRGB">
<feFlood flood-opacity="0" result="BackgroundImageFix"/>
<feColorMatrix in="SourceAlpha" type="matrix" values="0 0 0 0 0 0 0 0 0 0 0 0 0 0 0 0 0 0 127 0" result="hardAlpha"/>
<feOffset dy="4"/>
<feGaussianBlur stdDeviation="17.45"/>
<feComposite in2="hardAlpha" operator="out"/>
<feColorMatrix type="matrix" values="0 0 0 0 1 0 0 0 0 0.768627 0 0 0 0 0.392157 0 0 0 0.16 0"/>
<feBlend mode="normal" in2="BackgroundImageFix" result="effect1_dropShadow_162_159"/>
<feBlend mode="normal" in="SourceGraphic" in2="effect1_dropShadow_162_159" result="shape"/>
</filter>
<filter id="filter3_d_162_159" x="168" y="307" width="58.8619" height="42.9999" filterUnits="userSpaceOnUse" color-interpolation-filters="sRGB">
<feFlood flood-opacity="0" result="BackgroundImageFix"/>
<feColorMatrix in="SourceAlpha" type="matrix" values="0 0 0 0 0 0 0 0 0 0 0 0 0 0 0 0 0 0 127 0" result="hardAlpha"/>
<feOffset dy="4"/>
<feGaussianBlur stdDeviation="2"/>
<feComposite in2="hardAlpha" operator="out"/>
<feColorMatrix type="matrix" values="0 0 0 0 0 0 0 0 0 0 0 0 0 0 0 0 0 0 0.25 0"/>
<feBlend mode="normal" in2="BackgroundImageFix" result="effect1_dropShadow_162_159"/>
<feBlend mode="normal" in="SourceGraphic" in2="effect1_dropShadow_162_159" result="shape"/>
</filter>
<filter id="filter4_d_162_159" x="157.362" y="276.393" width="100.4" height="104.507" filterUnits="userSpaceOnUse" color-interpolation-filters="sRGB">
<feFlood flood-opacity="0" result="BackgroundImageFix"/>
<feColorMatrix in="SourceAlpha" type="matrix" values="0 0 0 0 0 0 0 0 0 0 0 0 0 0 0 0 0 0 127 0" result="hardAlpha"/>
<feOffset dy="4"/>
<feGaussianBlur stdDeviation="17.45"/>
<feComposite in2="hardAlpha" operator="out"/>
<feColorMatrix type="matrix" values="0 0 0 0 1 0 0 0 0 0.768627 0 0 0 0 0.392157 0 0 0 0.16 0"/>
<feBlend mode="normal" in2="BackgroundImageFix" result="effect1_dropShadow_162_159"/>
<feBlend mode="normal" in="SourceGraphic" in2="effect1_dropShadow_162_159" result="shape"/>
</filter>
<filter id="filter5_d_162_159" x="137.1" y="276.1" width="100.4" height="104.507" filterUnits="userSpaceOnUse" color-interpolation-filters="sRGB">
<feFlood flood-opacity="0" result="BackgroundImageFix"/>
<feColorMatrix in="SourceAlpha" type="matrix" values="0 0 0 0 0 0 0 0 0 0 0 0 0 0 0 0 0 0 127 0" result="hardAlpha"/>
<feOffset dy="4"/>
<feGaussianBlur stdDeviation="17.45"/>
<feComposite in2="hardAlpha" operator="out"/>
<feColorMatrix type="matrix" values="0 0 0 0 1 0 0 0 0 0.768627 0 0 0 0 0.392157 0 0 0 0.16 0"/>
<feBlend mode="normal" in2="BackgroundImageFix" result="effect1_dropShadow_162_159"/>
<feBlend mode="normal" in="SourceGraphic" in2="effect1_dropShadow_162_159" result="shape"/>
</filter>
<filter id="filter6_d_162_159" x="119.382" y="289.736" width="201.021" height="60.8319" filterUnits="userSpaceOnUse" color-interpolation-filters="sRGB">
<feFlood flood-opacity="0" result="BackgroundImageFix"/>
<feColorMatrix in="SourceAlpha" type="matrix" values="0 0 0 0 0 0 0 0 0 0 0 0 0 0 0 0 0 0 127 0" result="hardAlpha"/>
<feOffset dy="1"/>
<feGaussianBlur stdDeviation="3.4"/>
<feComposite in2="hardAlpha" operator="out"/>
<feColorMatrix type="matrix" values="0 0 0 0 1 0 0 0 0 1 0 0 0 0 1 0 0 0 0.23 0"/>
<feBlend mode="normal" in2="BackgroundImageFix" result="effect1_dropShadow_162_159"/>
<feBlend mode="normal" in="SourceGraphic" in2="effect1_dropShadow_162_159" result="shape"/>
</filter>
</defs>
</svg>
