<svg width="1080" height="1080" viewBox="0 0 1080 1080" fill="none" xmlns="http://www.w3.org/2000/svg">
<path d="M0 540C0 241.766 241.766 0 540 0V0C838.234 0 1080 241.766 1080 540V540C1080 838.234 838.234 1080 540 1080V1080C241.766 1080 0 838.234 0 540V540Z" fill="#1B1413"/>
<g filter="url(#filter0_d_455_503)">
<g filter="url(#filter1_d_455_503)">
<path d="M598.413 410.82L610.84 437.939C622.528 429.703 633.841 421.983 644.779 414.777C644.777 414.434 644.775 414.092 644.772 413.751C644.644 399.004 643.215 385.615 640.484 373.585C639.741 374.193 638.998 374.803 638.256 375.415C624.851 386.471 611.57 398.272 598.413 410.82Z" fill="#FFC464"/>
<path d="M596.154 539.638L601.802 580.318L641.589 569.53L642.528 525.181L596.154 539.638Z" fill="#FFC464"/>
<path fill-rule="evenodd" clip-rule="evenodd" d="M641.589 569.53L789.339 529.468C822.478 520.428 848.462 509.506 867.29 496.699C885.366 484.646 898.17 470.709 905.701 454.889C913.233 439.069 916.999 422.12 916.999 404.04C916.999 373.154 906.454 347.917 885.366 328.331C864.278 309.498 836.788 300.081 802.895 300.081C766.744 300.081 731.722 310.628 697.83 331.721C678.469 344.201 659.354 358.156 640.484 373.585C643.215 385.615 644.644 399.004 644.772 413.751C644.775 414.092 644.777 414.434 644.779 414.777C664.855 401.552 683.668 390.063 701.219 380.31C728.333 365.997 753.187 358.841 775.782 358.841C793.858 358.841 809.297 363.361 822.101 372.4C834.905 382.194 841.306 397.012 841.306 415.34C841.306 428.9 836.788 441.706 827.75 453.759C817.959 465.812 798.753 476.359 770.133 485.399L642.528 525.181L641.589 569.53Z" fill="white"/>
<path d="M621.008 330.591C604.439 310.251 581.844 300.081 553.224 300.081C535.148 300.081 518.202 303.848 502.386 311.381C486.569 318.914 473.766 328.708 463.975 340.761L489.958 376.92C495.984 369.387 503.139 363.737 511.423 359.971C519.708 356.204 527.993 354.321 536.278 354.321C546.822 354.321 555.106 358.841 561.132 367.881C566.404 376.92 569.04 389.727 569.04 406.3L566.781 643.597C566.028 686.536 576.571 720.436 598.413 745.296C619.501 770.908 652.641 783.715 697.83 783.715C721.931 783.715 745.656 779.948 769.003 772.415C792.351 765.636 813.816 755.466 833.398 741.906C852.981 729.099 869.173 713.656 881.977 695.576C894.781 677.497 903.065 657.534 906.831 635.687L832.269 627.777C829.256 652.637 821.348 672.977 808.544 688.796C794.987 704.616 779.171 716.293 761.095 723.826C743.019 731.359 726.073 735.126 710.257 735.126C695.194 735.126 682.391 731.359 671.846 723.826C661.302 717.046 653.393 706.123 648.122 691.056C642.096 676.744 639.461 657.91 640.213 634.557L641.589 569.53L601.802 580.318L596.154 539.638L642.528 525.181L644.732 420.99C644.773 418.893 644.788 416.822 644.779 414.777C633.841 421.983 622.528 429.703 610.84 437.939L598.413 410.82C611.57 398.272 624.851 386.471 638.256 375.415C638.998 374.803 639.741 374.193 640.484 373.585C636.611 356.521 630.119 342.189 621.008 330.591Z" fill="#FFC464"/>
</g>
<g filter="url(#filter2_d_455_503)">
<path d="M195.632 751.384C216.72 770.218 244.211 779.634 278.103 779.634C314.254 779.634 349.276 769.088 383.168 747.994C402.529 735.515 421.644 721.56 440.514 706.13C437.72 693.821 436.288 680.091 436.219 664.938C416.143 678.163 397.33 689.652 379.779 699.405C352.665 713.718 327.811 720.875 305.216 720.875C287.14 720.875 271.701 716.355 258.897 707.315C246.093 697.522 239.692 683.208 239.692 664.376C239.692 650.816 244.21 638.009 253.248 625.956C263.039 613.903 282.245 603.356 310.865 594.316L438.47 554.535L439.409 510.186L291.659 550.247C258.52 559.287 232.536 570.21 213.708 583.017C195.632 595.069 182.828 609.006 175.297 624.826C167.765 640.646 163.999 657.596 163.999 675.675C163.999 706.562 174.544 731.798 195.632 751.384Z" fill="#F8F5F3"/>
<path d="M459.99 749.124C476.559 769.464 499.154 779.634 527.774 779.634C545.85 779.634 562.796 775.867 578.612 768.334C594.429 760.801 607.232 751.008 617.023 738.954L591.04 702.795C585.014 710.328 577.859 715.978 569.575 719.745C561.29 723.511 553.005 725.395 544.72 725.395C534.176 725.395 525.892 720.875 519.866 711.835C514.594 702.795 511.958 689.988 511.958 673.415L514.217 436.118C514.97 393.179 504.427 359.279 482.585 334.42C461.497 308.807 428.358 296 383.168 296C359.067 296 335.342 299.767 311.995 307.3C288.647 314.08 267.182 324.25 247.6 337.81C228.017 350.616 211.825 366.059 199.021 384.139C186.217 402.219 177.933 422.182 174.167 444.028L248.729 451.938C251.742 427.078 259.65 406.739 272.454 390.919C286.011 375.099 301.827 363.422 319.903 355.889C337.979 348.356 354.925 344.589 370.741 344.589C385.804 344.589 398.608 348.356 409.152 355.889C419.697 362.669 427.605 373.592 432.876 388.659C438.902 402.972 441.537 421.805 440.785 445.158L439.409 510.186L479.196 499.398L484.844 540.077L438.47 554.535L436.266 658.726C436.225 660.822 436.21 662.893 436.219 664.938C447.157 657.733 458.47 650.012 470.158 641.776L482.585 668.896C469.428 681.443 456.147 693.245 442.742 704.3C442 704.912 441.257 705.522 440.514 706.13C444.387 723.195 450.879 737.526 459.99 749.124Z" fill="#FFC464"/>
<path d="M484.844 540.077L479.196 499.398L439.409 510.186L438.47 554.535L484.844 540.077Z" fill="#FFC464"/>
<path d="M482.585 668.896L470.158 641.776C458.47 650.012 447.157 657.733 436.219 664.938C436.288 680.091 437.72 693.821 440.514 706.13C441.257 705.522 442 704.912 442.742 704.3C456.147 693.245 469.428 681.443 482.585 668.896Z" fill="#FFC464"/>
</g>
</g>
<defs>
<filter id="filter0_d_455_503" x="160" y="296" width="760.998" height="495.715" filterUnits="userSpaceOnUse" color-interpolation-filters="sRGB">
<feFlood flood-opacity="0" result="BackgroundImageFix"/>
<feColorMatrix in="SourceAlpha" type="matrix" values="0 0 0 0 0 0 0 0 0 0 0 0 0 0 0 0 0 0 127 0" result="hardAlpha"/>
<feOffset dy="4"/>
<feGaussianBlur stdDeviation="2"/>
<feComposite in2="hardAlpha" operator="out"/>
<feColorMatrix type="matrix" values="0 0 0 0 0 0 0 0 0 0 0 0 0 0 0 0 0 0 0.25 0"/>
<feBlend mode="normal" in2="BackgroundImageFix" result="effect1_dropShadow_455_503"/>
<feBlend mode="normal" in="SourceGraphic" in2="effect1_dropShadow_455_503" result="shape"/>
</filter>
<filter id="filter1_d_455_503" x="429.075" y="269.181" width="522.823" height="553.434" filterUnits="userSpaceOnUse" color-interpolation-filters="sRGB">
<feFlood flood-opacity="0" result="BackgroundImageFix"/>
<feColorMatrix in="SourceAlpha" type="matrix" values="0 0 0 0 0 0 0 0 0 0 0 0 0 0 0 0 0 0 127 0" result="hardAlpha"/>
<feOffset dy="4"/>
<feGaussianBlur stdDeviation="17.45"/>
<feComposite in2="hardAlpha" operator="out"/>
<feColorMatrix type="matrix" values="0 0 0 0 1 0 0 0 0 0.768627 0 0 0 0 0.392157 0 0 0 0.16 0"/>
<feBlend mode="normal" in2="BackgroundImageFix" result="effect1_dropShadow_455_503"/>
<feBlend mode="normal" in="SourceGraphic" in2="effect1_dropShadow_455_503" result="shape"/>
</filter>
<filter id="filter2_d_455_503" x="129.1" y="265.1" width="522.823" height="553.434" filterUnits="userSpaceOnUse" color-interpolation-filters="sRGB">
<feFlood flood-opacity="0" result="BackgroundImageFix"/>
<feColorMatrix in="SourceAlpha" type="matrix" values="0 0 0 0 0 0 0 0 0 0 0 0 0 0 0 0 0 0 127 0" result="hardAlpha"/>
<feOffset dy="4"/>
<feGaussianBlur stdDeviation="17.45"/>
<feComposite in2="hardAlpha" operator="out"/>
<feColorMatrix type="matrix" values="0 0 0 0 1 0 0 0 0 0.768627 0 0 0 0 0.392157 0 0 0 0.16 0"/>
<feBlend mode="normal" in2="BackgroundImageFix" result="effect1_dropShadow_455_503"/>
<feBlend mode="normal" in="SourceGraphic" in2="effect1_dropShadow_455_503" result="shape"/>
</filter>
</defs>
</svg>
